# File created by Blade
# Date/Time:  Wed Jan 21 17:34:04 2015
# Frame Rate: 120.000 fps
#------------------------------------------------------
:FULLY-SPECIFIED
:DEGREES
509
root 16.795885 5.102525 -12.975597 -206.988689 33.195778 -132.970529
Spine 55.408957 -6.341956 24.520413
Head 15.573854 -0.653289 21.630245
LeftShoulder -0.411245 -9.268054 22.481035
LeftArm -35.129108 11.634980 -107.484460
LeftForeArm -41.619463 -0.000000 76.333244
LeftHand -21.372347 -0.000000 43.631033
LeftHandThumb1 -26.253704 0.000000 33.147579
RightShoulder -8.593418 -15.425224 7.216854
RightArm 10.246913 -14.997080 60.994043
RightForeArm -21.831062 0.000000 34.264327
RightHand -6.818846 -0.000000 1.006011
RightHandThumb1 -24.326973 -0.000000 -32.862282
LeftUpLeg -100.851463 26.362160 -30.700842
LeftLeg 118.665398 -0.000000 -0.000000
LeftFoot 36.343615 24.463917 6.893262
LeftToeBase 23.179331 -0.000000 -0.000000
RightUpLeg -81.785499 -5.734063 -7.609592
RightLeg 134.825318 -0.000000 -0.000000
RightFoot 5.200439 -21.791247 -0.352575
RightToeBase 16.354914 -0.000000 -0.000000
510
root 16.805255 5.119555 -12.977138 -206.969167 33.101486 -132.846362
Spine 55.253176 -6.237074 24.606761
Head 15.443587 -0.912367 21.656426
LeftShoulder -0.403965 -9.289995 22.475528
LeftArm -35.129943 11.602299 -107.468424
LeftForeArm -41.297262 -0.000000 76.420183
LeftHand -21.404010 0.000000 43.876215
LeftHandThumb1 -26.253704 0.000000 33.147579
RightShoulder -8.698012 -15.552888 7.313135
RightArm 10.513658 -15.321073 60.879640
RightForeArm -21.886960 -0.000000 33.958795
RightHand -6.837102 -0.000000 0.732778
RightHandThumb1 -24.326973 -0.000000 -32.862282
LeftUpLeg -101.005258 26.446038 -30.839875
LeftLeg 119.134304 -0.000000 -0.000000
LeftFoot 36.600267 24.545521 6.846514
LeftToeBase 23.150540 -0.000000 -0.000000
RightUpLeg -81.038136 -5.335000 -8.950283
RightLeg 134.667687 -0.000000 -0.000000
RightFoot 6.285093 -22.125623 -0.834052
RightToeBase 16.730320 -0.000000 -0.000000
511
root 16.818391 5.137022 -12.979853 -206.937259 33.010164 -132.718410
Spine 55.059894 -6.138677 24.671503
Head 15.432264 -1.120283 21.662814
LeftShoulder -0.381551 -9.241967 22.454562
LeftArm -35.101055 11.588556 -107.421708
LeftForeArm -40.992237 -0.000000 76.510279
LeftHand -21.464658 -0.000000 44.079379
LeftHandThumb1 -26.253704 0.000000 33.147579
RightShoulder -8.733012 -15.635721 7.383132
RightArm 10.659058 -15.662374 60.833225
RightForeArm -21.926419 -0.000000 33.688855
RightHand -6.929555 -0.000000 0.424425
RightHandThumb1 -24.326973 -0.000000 -32.862282
LeftUpLeg -101.193141 26.537500 -30.988332
LeftLeg 119.546223 -0.000000 -0.000000
LeftFoot 37.031953 24.811803 6.856765
LeftToeBase 23.407101 -0.000000 -0.000000
RightUpLeg -80.271306 -4.894199 -10.242680
RightLeg 134.532731 -0.000000 -0.000000
RightFoot 7.179520 -22.436013 -1.291726
RightToeBase 17.584576 -0.000000 -0.000000
512
root 16.830469 5.152730 -12.985268 -206.954062 32.880638 -132.601616
Spine 54.922743 -6.079662 24.696915
Head 15.338748 -1.384836 21.671732
LeftShoulder -0.386597 -9.230251 22.476899
LeftArm -35.085565 11.567040 -107.401228
LeftForeArm -40.760772 -0.000000 76.623493
LeftHand -21.554290 -0.000000 44.345280
LeftHandThumb1 -26.253704 0.000000 33.147579
RightShoulder -8.723788 -15.653922 7.413325
RightArm 10.674062 -15.961426 60.875570
RightForeArm -22.024517 -0.000000 33.519489
RightHand -7.093319 -0.000000 -0.021204
RightHandThumb1 -24.326973 -0.000000 -32.862282
LeftUpLeg -101.229630 26.651037 -31.058958
LeftLeg 120.057480 -0.000000 -0.000000
LeftFoot 36.921354 24.536371 7.050514
LeftToeBase 23.679121 -0.000000 -0.000000
RightUpLeg -79.432144 -4.468310 -11.469309
RightLeg 134.440911 -0.000000 -0.000000
RightFoot 7.936576 -22.823151 -1.752009
RightToeBase 18.300232 -0.000000 -0.000000
513
root 16.846441 5.165393 -12.996547 -206.963704 32.716416 -132.513541
Spine 54.722779 -6.013378 24.670576
Head 15.319005 -1.629017 21.738325
LeftShoulder -0.405752 -9.226656 22.516901
LeftArm -35.099465 11.560736 -107.395621
LeftForeArm -40.475752 -0.000000 76.732116
LeftHand -21.657056 -0.000000 44.730553
LeftHandThumb1 -26.253704 0.000000 33.147579
RightShoulder -8.713074 -15.690257 7.490258
RightArm 10.650818 -16.257923 60.899605
RightForeArm -22.042053 -0.000000 33.377097
RightHand -7.177396 0.000000 -0.326916
RightHandThumb1 -24.326973 -0.000000 -32.862282
LeftUpLeg -101.335126 26.705876 -31.172423
LeftLeg 120.528063 -0.000000 -0.000000
LeftFoot 37.000858 24.606864 7.011303
LeftToeBase 23.737304 -0.000000 -0.000000
RightUpLeg -78.596146 -4.054439 -12.722796
RightLeg 134.410534 -0.000000 -0.000000
RightFoot 8.504656 -23.078192 -2.128897
RightToeBase 18.857976 -0.000000 -0.000000
